# File created by Blade
# Date/Time:  Tue Jan 27 19:32:46 2015
#---------------------------------------------------------
:version 1.10
:name HOM
:units
  mass 1.0
  length 1.000000
  angle deg
:documentation
     Acclaim Skeleton File
:root
   axis xyz
   order TX TY TZ RX RY RZ
   position 0.000000 0.000000 0.000000
   orientation 0 0 0
:bonedata
   begin
      id 1
      name Spine_dum
      direction 0.000000 1.000000 0.000000
      length 6.116652
      axis 0.0 0.0 0.0 xyz
   end
   begin
      id 2
      name LeftUpLeg_dum
      direction 1.000000 0.000000 0.000000
      length 4.711765
      axis 0.0 0.0 0.0 xyz
   end
   begin
      id 3
      name RightUpLeg_dum
      direction -1.000000 0.000000 0.000000
      length 4.711765
      axis 0.0 0.0 0.0 xyz
   end
   begin
      id 4
      name Spine
      direction 0.000000 1.000000 0.000000
      length 0.000000
      axis 0.0 0.0 0.0 xyz
      dof rx ry rz
   end
   begin
      id 5
      name Spine_dum1
      direction 0.000000 1.000000 0.000000
      length 15.225563
      axis 0.0 0.0 0.0 xyz
   end
   begin
      id 6
      name Spine_dum2
      direction 0.000000 1.000000 0.000000
      length 8.977654
      axis 0.0 0.0 0.0 xyz
   end
   begin
      id 7
      name Spine_dum3
      direction 0.000000 1.000000 0.000000
      length 8.977654
      axis 0.0 0.0 0.0 xyz
   end
   begin
      id 8
      name Head
      direction 0.000000 1.000000 0.000000
      length 4.527550
      axis 0.0 0.0 0.0 xyz
      dof rx ry rz
   end
   begin
      id 9
      name LeftShoulder
      direction 1.000000 0.000000 0.000000
      length 7.110130
      axis 0.0 0.0 -90.0 xyz
      dof rx ry rz
   end
   begin
      id 10
      name LeftArm
      direction 1.000000 0.000000 0.000000
      length 10.398341
      axis 0.0 0.0 -90.0 xyz
      dof rx ry rz
   end
   begin
      id 11
      name LeftForeArm
      direction 1.000000 0.000000 0.000000
      length 8.888997
      axis 0.0 0.0 -90.0 xyz
      dof ry rz rx
   end
   begin
      id 12
      name LeftHand
      direction 0.000000 0.000000 0.000000
      length 0.000000
      axis 0.0 0.0 -90.0 xyz
      dof rx ry rz
   end
   begin
      id 13
      name LeftHand_dum1
      direction 0.000000 0.000000 0.000000
      length 0.000000
      axis 0.0 0.0 -90.0 xyz
   end
   begin
      id 14
      name LeftHand_dum2
      direction 1.000000 0.000000 0.000000
      length 3.937000
      axis 0.0 0.0 -90.0 xyz
   end
   begin
      id 15
      name LeftHandThumb1
      direction 0.000000 0.000000 1.000000
      length 3.937000
      axis 0.0 0.0 -90.0 xyz
      dof rx rz ry
   end
   begin
      id 16
      name RightShoulder
      direction -1.000000 0.000000 0.000000
      length 7.110130
      axis 0.0 0.0 90.0 xyz
      dof rx ry rz
   end
   begin
      id 17
      name RightArm
      direction -1.000000 0.000000 0.000000
      length 10.398341
      axis 0.0 0.0 90.0 xyz
      dof rx ry rz
   end
   begin
      id 18
      name RightForeArm
      direction -1.000000 0.000000 0.000000
      length 8.888997
      axis 0.0 0.0 90.0 xyz
      dof ry rz rx
   end
   begin
      id 19
      name RightHand
      direction 0.000000 0.000000 0.000000
      length 0.000000
      axis 0.0 0.0 90.0 xyz
      dof rx ry rz
   end
   begin
      id 20
      name RightHand_dum1
      direction 0.000000 0.000000 0.000000
      length 0.000000
      axis 0.0 0.0 90.0 xyz
   end
   begin
      id 21
      name RightHand_dum2
      direction -1.000000 0.000000 0.000000
      length 3.937000
      axis 0.0 0.0 90.0 xyz
   end
   begin
      id 22
      name RightHandThumb1
      direction 0.000000 0.000000 1.000000
      length 3.937000
      axis 0.0 0.0 90.0 xyz
      dof rx rz ry
   end
   begin
      id 23
      name LeftUpLeg
      direction 0.000000 -1.000000 0.000000
      length 15.510451
      axis 0.0 0.0 0.0 xyz
      dof rx ry rz
   end
   begin
      id 24
      name LeftLeg
      direction 0.000000 -1.000000 0.000000
      length 14.858061
      axis 0.0 0.0 0.0 xyz
      dof rx ry rz
   end
   begin
      id 25
      name LeftFoot
      direction 0.000000 -0.258819 0.965926
      length 5.128852
      axis 15.0 0.0 0.0 xyz
      dof rx ry rz
   end
   begin
      id 26
      name LeftToeBase
      direction 0.000000 0.000000 1.000000
      length 2.952750
      axis 0.0 0.0 0.0 xyz
      dof rx ry rz
   end
   begin
      id 27
      name RightUpLeg
      direction 0.000000 -1.000000 0.000000
      length 15.510451
      axis 0.0 0.0 0.0 xyz
      dof rx ry rz
   end
   begin
      id 28
      name RightLeg
      direction 0.000000 -1.000000 0.000000
      length 14.858061
      axis 0.0 0.0 0.0 xyz
      dof rx ry rz
   end
   begin
      id 29
      name RightFoot
      direction 0.000000 -0.258819 0.965926
      length 5.128852
      axis 15.0 0.0 0.0 xyz
      dof rx ry rz
   end
   begin
      id 30
      name RightToeBase
      direction 0.000000 0.000000 1.000000
      length 2.952750
      axis 0.0 0.0 0.0 xyz
      dof rx ry rz
   end
:hierarchy
   begin
      root Spine_dum LeftUpLeg_dum RightUpLeg_dum
      Spine_dum Spine
      LeftUpLeg_dum LeftUpLeg
      RightUpLeg_dum RightUpLeg
      Spine Spine_dum1 Spine_dum2 Spine_dum3
      Spine_dum1 Head
      Spine_dum2 LeftShoulder
      Spine_dum3 RightShoulder
      LeftShoulder LeftArm
      LeftArm LeftForeArm
      LeftForeArm LeftHand
      LeftHand LeftHand_dum1 LeftHand_dum2
      LeftHand_dum1 LeftHandThumb1
      RightShoulder RightArm
      RightArm RightForeArm
      RightForeArm RightHand
      RightHand RightHand_dum1 RightHand_dum2
      RightHand_dum1 RightHandThumb1
      LeftUpLeg LeftLeg
      LeftLeg LeftFoot
      LeftFoot LeftToeBase
      RightUpLeg RightLeg
      RightLeg RightFoot
      RightFoot RightToeBase
   end

# File created by Blade
# Date/Time:  Tue Jan 27 19:32:37 2015
# Frame Rate: 120.000 fps
#------------------------------------------------------
:FULLY-SPECIFIED
:DEGREES
1
root 3.565781 32.341578 -0.598640 -2.698977 1.689328 0.607725
Spine 3.358629 4.845867 0.548080
Head 2.867176 -3.654670 0.617305
LeftShoulder -14.133008 -3.211772 41.122499
LeftArm 17.128914 -7.990092 -42.552822
LeftForeArm 21.017217 -0.000000 -8.273036
LeftHand 9.922575 -0.000000 0.157661
LeftHandThumb1 -26.253704 0.000000 33.147579
RightShoulder -19.014225 -17.863362 -39.158979
RightArm 18.647675 14.254596 46.111648
RightForeArm -15.036393 -0.000000 6.109233
RightHand 17.730248 -0.000000 0.278439
RightHandThumb1 -24.326973 -0.000000 -32.862282
LeftUpLeg 8.629397 1.524077 -1.568097
LeftLeg 1.695222 -0.000000 -0.000000
LeftFoot -18.755623 16.993395 -22.991995
LeftToeBase 16.882619 -0.000000 -0.000000
RightUpLeg 7.564534 -9.715486 1.295954
RightLeg 0.484392 -0.000000 -0.000000
RightFoot -12.462927 -14.512905 13.202881
RightToeBase 11.082499 -0.000000 -0.000000
2
root 3.564057 32.342628 -0.601833 -2.719464 1.650181 0.602402
Spine 3.381473 4.920527 0.514182
Head 2.902350 -3.682483 0.658046
LeftShoulder -14.086451 -3.270974 41.115551
LeftArm 17.085587 -7.844839 -42.489342
LeftForeArm 20.847068 -0.000000 -8.304157
LeftHand 9.954396 -0.000000 0.242954
LeftHandThumb1 -26.253704 0.000000 33.147579
RightShoulder -18.930738 -17.758085 -39.134540
RightArm 18.862471 14.252656 46.257206
RightForeArm -15.126862 0.000000 6.156503
RightHand 17.478156 -0.000000 0.600487
RightHandThumb1 -24.326973 -0.000000 -32.862282
LeftUpLeg 8.637353 1.528416 -1.564269
LeftLeg 1.714642 -0.000000 -0.000000
LeftFoot -18.754884 17.028451 -22.988773
LeftToeBase 16.829953 -0.000000 -0.000000
RightUpLeg 7.546977 -9.697722 1.304540
RightLeg 0.534995 -0.000000 -0.000000
RightFoot -12.454197 -14.525723 13.184514
RightToeBase 10.969552 -0.000000 -0.000000
3
root 3.562751 32.342454 -0.604106 -2.745091 1.610072 0.593894
Spine 3.405948 4.996558 0.483031
Head 2.931034 -3.720951 0.697248
LeftShoulder -14.056544 -3.230299 41.142147
LeftArm 17.073895 -7.855978 -42.542075
LeftForeArm 20.767485 -0.000000 -8.245497
LeftHand 10.024158 -0.000000 0.151592
LeftHandThumb1 -26.253704 0.000000 33.147579
RightShoulder -18.877499 -17.576147 -39.107738
RightArm 19.097939 13.985000 46.300164
RightForeArm -15.037961 -0.000000 6.129938
RightHand 17.439062 -0.000000 0.641610
RightHandThumb1 -24.326973 -0.000000 -32.862282
LeftUpLeg 8.660302 1.559256 -1.553351
LeftLeg 1.722516 -0.000000 -0.000000
LeftFoot -18.739008 17.002209 -23.021271
LeftToeBase 16.681029 -0.000000 -0.000000
RightUpLeg 7.536123 -9.698880 1.309047
RightLeg 0.587808 -0.000000 -0.000000
RightFoot -12.516669 -14.474533 13.277588
RightToeBase 11.200568 -0.000000 -0.000000
4
root 3.559567 32.343545 -0.607717 -2.764691 1.575085 0.580232
Spine 3.426891 5.053070 0.453509
Head 2.948222 -3.759710 0.723387
LeftShoulder -14.029021 -3.248756 41.154905
LeftArm 16.992464 -7.771306 -42.537952
LeftForeArm 20.716795 -0.000000 -8.126015
LeftHand 9.690324 -0.000000 -0.176631
LeftHandThumb1 -26.253704 0.000000 33.147579
RightShoulder -18.769951 -17.380334 -39.107516
RightArm 19.301715 13.920301 46.454886
RightForeArm -15.172210 -0.000000 6.195366
RightHand 17.356939 -0.000000 0.667760
RightHandThumb1 -24.326973 -0.000000 -32.862282
LeftUpLeg 8.671206 1.573631 -1.535315
LeftLeg 1.733859 -0.000000 -0.000000
LeftFoot -18.787896 17.042679 -23.019744
LeftToeBase 16.859120 -0.000000 -0.000000
RightUpLeg 7.509783 -9.699953 1.326570
RightLeg 0.656601 -0.000000 -0.000000
RightFoot -12.476086 -14.471935 13.194816
RightToeBase 11.050380 -0.000000 -0.000000
5
root 3.558798 32.344249 -0.611446 -2.788421 1.542844 0.577959
Spine 3.449186 5.115707 0.417355
Head 2.958331 -3.808115 0.739512
LeftShoulder -13.966299 -3.298443 41.121171
LeftArm 16.890431 -7.674732 -42.464049
LeftForeArm 20.440550 -0.000000 -8.096483
LeftHand 9.884377 -0.000000 -0.278795
LeftHandThumb1 -26.253704 0.000000 33.147579
RightShoulder -18.709847 -17.185650 -39.043340
RightArm 19.604472 13.803824 46.530642
RightForeArm -15.284158 0.000000 6.256247
RightHand 17.216429 -0.000000 0.632370
RightHandThumb1 -24.326973 -0.000000 -32.862282
LeftUpLeg 8.684226 1.592879 -1.534260
LeftLeg 1.748762 -0.000000 -0.000000
LeftFoot -18.800290 17.074512 -23.015348
LeftToeBase 16.875470 -0.000000 -0.000000
RightUpLeg 7.496100 -9.691439 1.325497
RightLeg 0.709667 -0.000000 -0.000000
RightFoot -12.495877 -14.444801 13.214268
RightToeBase 11.082863 -0.000000 -0.000000
6
root 3.557195 32.343666 -0.614022 -2.820852 1.517526 0.567418
Spine 3.473784 5.155014 0.383330
Head 2.988458 -3.841550 0.764698
LeftShoulder -13.957452 -3.208726 41.117368
LeftArm 16.906507 -7.906238 -42.548965
LeftForeArm 20.517325 0.000000 -7.984945
LeftHand 9.737776 -0.000000 -0.397405
LeftHandThumb1 -26.253704 0.000000 33.147579
RightShoulder -18.703157 -16.940197 -38.984816
RightArm 19.980930 13.373153 46.524906
RightForeArm -15.063032 -0.000000 6.260761
RightHand 17.304016 -0.000000 0.530429
RightHandThumb1 -24.326973 -0.000000 -32.862282
LeftUpLeg 8.709654 1.612301 -1.520386
LeftLeg 1.760019 -0.000000 -0.000000
LeftFoot -18.816561 17.070172 -23.016789
LeftToeBase 16.845394 -0.000000 -0.000000
RightUpLeg 7.502906 -9.678712 1.335536
RightLeg 0.741149 -0.000000 -0.000000
RightFoot -12.550348 -14.428367 13.299488
RightToeBase 11.290135 -0.000000 -0.000000
